<?xml version="1.0" encoding="UTF-8"?>
<svg xmlns="http://www.w3.org/2000/svg" viewBox="0 0 512 512" width="512" height="512">
  <defs>
    <linearGradient id="bgGradient" x1="0%" y1="0%" x2="100%" y2="100%">
      <stop offset="0%" style="stop-color:#0066cc"/>
      <stop offset="100%" style="stop-color:#0052a3"/>
    </linearGradient>
    <filter id="shadow" x="-20%" y="-20%" width="140%" height="140%">
      <feDropShadow dx="0" dy="4" stdDeviation="8" flood-color="#000000" flood-opacity="0.2"/>
    </filter>
  </defs>
  
  <!-- Background -->
  <rect width="512" height="512" rx="128" fill="url(#bgGradient)"/>
  
  <!-- Map pin icon -->
  <g transform="translate(256, 220)" filter="url(#shadow)">
    <!-- Pin body -->
    <path 
      d="M0,-120 C-66.3,-120 -120,-66.3 -120,0 C-120,80 0,200 0,200 C0,200 120,80 120,0 C120,-66.3 66.3,-120 0,-120 Z" 
      fill="#ffffff"
    />
    <!-- Inner circle -->
    <circle cx="0" cy="0" r="50" fill="#0066cc"/>
    <!-- Inner dot -->
    <circle cx="0" cy="0" r="20" fill="#ffffff"/>
  </g>
  
  <!-- Map elements -->
  <g opacity="0.1">
    <path d="M80,400 L200,320 L320,380 L440,300" stroke="#ffffff" stroke-width="20" fill="none" stroke-linecap="round"/>
    <path d="M100,440 L180,400" stroke="#ffffff" stroke-width="15" fill="none" stroke-linecap="round"/>
    <path d="M340,420 L420,380" stroke="#ffffff" stroke-width="15" fill="none" stroke-linecap="round"/>
  </g>
</svg>